<?xml version="1.0" standalone="no"?>
<!DOCTYPE svg PUBLIC "-//W3C//DTD SVG 1.1//EN"
  "http://www.w3.org/Graphics/SVG/1.1/DTD/svg11.dtd">
<svg version="1.1" xmlns="http://www.w3.org/2000/svg" xmlns:xlink="http://www.w3.org/1999/xlink" width="3840" height="2160" viewBox="-1040.888888888889 -32 1889.7777777777778 1063" id="ccdiagram"><filter id="grayscale"><feColorMatrix type="matrix" values="0.3333 0.3333 0.3333 0 0 0.3333 0.3333 0.3333 0 0 0.3333 0.3333 0.3333 0 0 0 0 0 1 0"></feColorMatrix></filter><defs><style type="text/css">@import url(&#x27;https://fonts.googleapis.com/css?family=Open+Sans:400,700|Inconsolata:400&#x27;);</style></defs><g><g style="pointer-events:none"><g><pattern id="gridPatternMinor" x="0" y="37" width="128" height="74" patternUnits="userSpaceOnUse"><path d="M 0 0 L 128 74" stroke="#eee" stroke-width="1"></path><path d="M 128 0 L 0 74" stroke="#eee" stroke-width="1"></path></pattern><polygon points="0 0, 768 444, -192 999, -960 555" fill="url(#gridPatternMinor)"></polygon></g><polygon points="-960 555, -960 565, -192 1009, -192 999" stroke-linejoin="round" stroke="#54626f" stroke-width="1" fill="#f9f9f9"></polygon><polygon points="-192 1009, 768 454, 768 444, -192 999" stroke-linejoin="round" stroke="#54626f" stroke-width="1" fill="#e2e2e2"></polygon></g><g pointer-events="auto"><g opacity="1"><g><g><polygon points="-160 167, -96 204, -96 241, -352 389, -416 389, -480 352, -480 315, -224 167" fill="#4286c5" stroke-width="2" stroke="#818181"></polygon><polygon points="-192 185, -128 222, -384 370, -448 333" fill="#e6e7e8" stroke-width="0" stroke="#818181"></polygon></g></g></g><g opacity="1"><g><g><polygon points="32 278, 96 315, 96 352, -160 500, -224 500, -288 463, -288 426, -32 278" fill="#ff5722" stroke-width="2" stroke="#818181"></polygon><polygon points="0 296, 64 333, -192 481, -256 444" fill="#e6e7e8" stroke-width="0" stroke="#818181"></polygon></g></g></g><g opacity="1"><g><g><polygon points="224 389, 288 426, 288 463, 32 611, -32 611, -96 574, -96 537, 160 389" fill="#009688" stroke-width="2" stroke="#818181"></polygon><polygon points="192 407, 256 444, 0 592, -64 555" fill="#e6e7e8" stroke-width="0" stroke="#818181"></polygon></g></g></g></g><g style="pointer-events:none"><g><pattern id="gridPatternMajor" x="0" y="37" width="128" height="74" patternUnits="userSpaceOnUse"><path d="M 64 0 L 128 37 64 74 0 37 z" stroke="#54626f" stroke-width="1" fill="none"></path></pattern><polygon points="0 0, 768 444, -192 999, -960 555" fill="url(#gridPatternMajor)"></polygon></g></g><g pointer-events="auto"></g><g></g><g pointer-events="auto"></g><g></g><g pointer-events="auto"><g opacity="1"><g id="69ea0a34-2b1d-4f57-abde-3a09afd18c19"><svg x="-384" y="296" overflow="visible"><polygon points="0 0, 64 37, 0 74, -64 37" fill="#f5b720"></polygon><polygon points="0 0, 64 37, 0 74, -64 37" fill="none" stroke-width="20" stroke="#f5b720" opacity="1"></polygon><g cursor="nwse-resize"><polygon points="0 0, -19 -11, 13 -30, -83 -11, -115 44, -83 26, -64 37" fill="#f5b720"></polygon><polygon points="64 37, 83 48, 115 30, 83 85, -13 104, 19 85, 0 74" fill="#f5b720"></polygon></g></svg></g></g><g opacity="1"><g id="6ecfe85c-4ce6-4b16-94c1-5b5fd91712ae"><svg x="-192" y="407" overflow="visible"><polygon points="0 0, 64 37, 0 74, -64 37" fill="#f5b720"></polygon><polygon points="0 0, 64 37, 0 74, -64 37" fill="none" stroke-width="20" stroke="#f5b720" opacity="1"></polygon><g cursor="nwse-resize"><polygon points="0 0, -19 -11, 13 -30, -83 -11, -115 44, -83 26, -64 37" fill="#f5b720"></polygon><polygon points="64 37, 83 48, 115 30, 83 85, -13 104, 19 85, 0 74" fill="#f5b720"></polygon></g></svg></g></g><g opacity="1"><g id="73071e1d-c48e-469b-b99d-03d77bb8aea4"><svg x="0" y="518" overflow="visible"><polygon points="0 0, 64 37, 0 74, -64 37" fill="#f5b720"></polygon><polygon points="0 0, 64 37, 0 74, -64 37" fill="none" stroke-width="20" stroke="#f5b720" opacity="1"></polygon><g cursor="nwse-resize"><polygon points="0 0, -19 -11, 13 -30, -83 -11, -115 44, -83 26, -64 37" fill="#f5b720"></polygon><polygon points="64 37, 83 48, 115 30, 83 85, -13 104, 19 85, 0 74" fill="#f5b720"></polygon></g></svg></g></g></g><g pointer-events="none"></g><g pointer-events="auto"><g><g cursor="cell"><line x1="160" y1="241" x2="63" y2="297" stroke="red" stroke-width="8" opacity="0"></line><line x1="160" y1="241" x2="63" y2="297" stroke="#000000" stroke-width="2" stroke-linecap="round"></line><polygon points="53 302, 79 297, 66 295, 62 288, 53 302" stroke-linejoin="round" fill="#000000" stroke="#000000" stroke-width="1"></polygon></g></g><g><g cursor="cell"><line x1="32" y1="685" x2="470" y2="431" stroke="red" stroke-width="8" opacity="0"></line><line x1="32" y1="685" x2="470" y2="431" stroke="#000000" stroke-width="2" stroke-linecap="round"></line><polygon points="480 426, 454 431, 468 433, 471 440, 480 426" stroke-linejoin="round" fill="#000000" stroke="#000000" stroke-width="1"></polygon></g></g><g><g cursor="cell"><line x1="-249" y1="255" x2="-310" y2="290" stroke="red" stroke-width="8" opacity="0"></line><line x1="-249" y1="255" x2="-310" y2="290" stroke="#000000" stroke-width="2" stroke-linecap="round"></line><polygon points="-320 296, -294 291, -308 289, -311 281, -320 296" stroke-linejoin="round" fill="#000000" stroke="#000000" stroke-width="1"></polygon></g></g><g><g cursor="cell"><line x1="466" y1="380" x2="426" y2="357" stroke="red" stroke-width="8" opacity="0"></line><line x1="466" y1="380" x2="426" y2="357" stroke="#000000" stroke-width="2" stroke-linecap="round"></line><polygon points="416 352, 425 366, 428 359, 442 357, 416 352" stroke-linejoin="round" fill="#000000" stroke="#000000" stroke-width="1"></polygon></g></g><g><g cursor="cell"><line x1="-96" y1="500" x2="-192" y2="555" stroke="red" stroke-width="8" opacity="0"></line><line x1="-96" y1="500" x2="-192" y2="555" stroke="#000000" stroke-width="2" stroke-linecap="round"></line></g></g><g><g cursor="cell"><line x1="-160" y1="463" x2="-96" y2="500" stroke="red" stroke-width="8" opacity="0"></line><line x1="-160" y1="463" x2="-96" y2="500" stroke="#000000" stroke-width="2" stroke-linecap="round"></line></g></g><g><g cursor="cell"><line x1="-544" y1="426" x2="-426" y2="357" stroke="red" stroke-width="8" opacity="0"></line><line x1="-544" y1="426" x2="-426" y2="357" stroke="#000000" stroke-width="2" stroke-dasharray="8,6" stroke-linecap="butt"></line><polygon points="-416 352, -442 357, -428 359, -425 366, -416 352" stroke-linejoin="round" fill="#000000" stroke="#000000" stroke-width="1"></polygon></g></g><g><g cursor="cell"><line x1="-224" y1="648" x2="-160" y2="648" stroke="red" stroke-width="8" opacity="0"></line><line x1="-224" y1="648" x2="-160" y2="648" stroke="#000000" stroke-width="2" stroke-dasharray="8,6" stroke-linecap="butt"></line></g></g><g><g cursor="cell"><line x1="-288" y1="389" x2="-384" y2="444" stroke="red" stroke-width="8" opacity="0"></line><line x1="-288" y1="389" x2="-384" y2="444" stroke="#000000" stroke-width="2" stroke-linecap="round"></line></g></g><g><g cursor="cell"><line x1="336" y1="305" x2="234" y2="246" stroke="red" stroke-width="8" opacity="0"></line><line x1="336" y1="305" x2="234" y2="246" stroke="#000000" stroke-width="2" stroke-linecap="round"></line><polygon points="224 241, 233 255, 236 248, 250 246, 224 241" stroke-linejoin="round" fill="#000000" stroke="#000000" stroke-width="1"></polygon></g></g><g><g cursor="cell"><line x1="-384" y1="444" x2="-192" y2="555" stroke="red" stroke-width="8" opacity="0"></line><line x1="-384" y1="444" x2="-192" y2="555" stroke="#000000" stroke-width="2" stroke-linecap="round"></line></g></g><g><g cursor="cell"><line x1="160" y1="241" x2="-126" y2="193" stroke="red" stroke-width="8" opacity="0"></line><line x1="160" y1="241" x2="-126" y2="193" stroke="#000000" stroke-width="2" stroke-linecap="round"></line><polygon points="-139 191, -118 202, -122 194, -112 189, -139 191" stroke-linejoin="round" fill="#000000" stroke="#000000" stroke-width="1"></polygon></g></g><g><g cursor="cell"><line x1="0" y1="666" x2="32" y2="685" stroke="red" stroke-width="8" opacity="0"></line><line x1="0" y1="666" x2="32" y2="685" stroke="#000000" stroke-width="2" stroke-linecap="round"></line></g></g><g><g cursor="cell"><line x1="-399" y1="564" x2="-384" y2="555" stroke="red" stroke-width="8" opacity="0"></line><line x1="-399" y1="564" x2="-384" y2="555" stroke="#000000" stroke-width="2" stroke-dasharray="8,6" stroke-linecap="butt"></line></g></g><g><g cursor="cell"><line x1="-352" y1="352" x2="-288" y2="389" stroke="red" stroke-width="8" opacity="0"></line><line x1="-352" y1="352" x2="-288" y2="389" stroke="#000000" stroke-width="2" stroke-linecap="round"></line></g></g><g><g cursor="cell"><line x1="-384" y1="555" x2="-224" y2="648" stroke="red" stroke-width="8" opacity="0"></line><line x1="-384" y1="555" x2="-224" y2="648" stroke="#000000" stroke-width="2" stroke-dasharray="8,6" stroke-linecap="butt"></line></g></g><g><g cursor="cell"><line x1="-384" y1="555" x2="-544" y2="463" stroke="red" stroke-width="8" opacity="0"></line><line x1="-384" y1="555" x2="-544" y2="463" stroke="#000000" stroke-width="2" stroke-dasharray="8,6" stroke-linecap="butt"></line></g></g><g><g cursor="cell"><line x1="135" y1="477" x2="74" y2="512" stroke="red" stroke-width="8" opacity="0"></line><line x1="135" y1="477" x2="74" y2="512" stroke="#000000" stroke-width="2" stroke-linecap="round"></line><polygon points="64 518, 90 513, 76 511, 73 503, 64 518" stroke-linejoin="round" fill="#000000" stroke="#000000" stroke-width="1"></polygon></g></g><g><g cursor="cell"><line x1="-160" y1="648" x2="-42" y2="579" stroke="red" stroke-width="8" opacity="0"></line><line x1="-160" y1="648" x2="-42" y2="579" stroke="#000000" stroke-width="2" stroke-dasharray="8,6" stroke-linecap="butt"></line><polygon points="-32 574, -58 579, -44 581, -41 588, -32 574" stroke-linejoin="round" fill="#000000" stroke="#000000" stroke-width="1"></polygon></g></g><g><g cursor="cell"><line x1="-544" y1="463" x2="-544" y2="426" stroke="red" stroke-width="8" opacity="0"></line><line x1="-544" y1="463" x2="-544" y2="426" stroke="#000000" stroke-width="2" stroke-dasharray="8,6" stroke-linecap="butt"></line></g></g><g><g cursor="cell"><line x1="32" y1="574" x2="96" y2="611" stroke="red" stroke-width="8" opacity="0"></line><line x1="32" y1="574" x2="96" y2="611" stroke="#000000" stroke-width="2" stroke-linecap="round"></line></g></g><g><g cursor="cell"><line x1="96" y1="611" x2="0" y2="666" stroke="red" stroke-width="8" opacity="0"></line><line x1="96" y1="611" x2="0" y2="666" stroke="#000000" stroke-width="2" stroke-linecap="round"></line></g></g><g><g cursor="cell"><line x1="-384" y1="555" x2="-234" y2="468" stroke="red" stroke-width="8" opacity="0"></line><line x1="-384" y1="555" x2="-234" y2="468" stroke="#000000" stroke-width="2" stroke-dasharray="8,6" stroke-linecap="butt"></line><polygon points="-224 463, -250 468, -236 470, -233 477, -224 463" stroke-linejoin="round" fill="#000000" stroke="#000000" stroke-width="1"></polygon></g></g><g><g cursor="cell"><line x1="160" y1="241" x2="241" y2="406" stroke="red" stroke-width="8" opacity="0"></line><line x1="160" y1="241" x2="241" y2="406" stroke="#000000" stroke-width="2" stroke-linecap="round"></line><polygon points="245 413, 249 398, 240 403, 227 401, 245 413" stroke-linejoin="round" fill="#000000" stroke="#000000" stroke-width="1"></polygon></g></g><g><g cursor="cell"><line x1="-57" y1="366" x2="-118" y2="401" stroke="red" stroke-width="8" opacity="0"></line><line x1="-57" y1="366" x2="-118" y2="401" stroke="#000000" stroke-width="2" stroke-linecap="round"></line><polygon points="-128 407, -102 402, -116 400, -119 392, -128 407" stroke-linejoin="round" fill="#000000" stroke="#000000" stroke-width="1"></polygon></g></g><g><g cursor="cell"><line x1="-192" y1="555" x2="0" y2="666" stroke="red" stroke-width="8" opacity="0"></line><line x1="-192" y1="555" x2="0" y2="666" stroke="#000000" stroke-width="2" stroke-linecap="round"></line></g></g></g><g pointer-events="auto"><g opacity="1"><g id="541de784-9115-40e9-b0a9-9c2cf4600e81" transform="translate(0 0)"><svg x="143" y="129" height="120.799" width="97" viewBox="0 0 25.665 31.962"><path d="M.269 5.1v21.761l8.375 4.836V9.937z" fill="#d2d2d4" fill-rule="evenodd"></path><path d="M4.457 2.682v4.836l4.187 2.418h8.376l4.188-2.418V2.682L17.02.265H8.644z" fill="none" stroke="#000" stroke-width=".269"></path><path d="M8.644 9.936h8.376v21.76H8.644z" fill="#d2d2d4" fill-rule="evenodd"></path><path d="M.269 5.1v4.836l8.375 4.836h8.376l8.376-4.836V5.1L17.02.265H8.644z" fill="#ececed" fill-rule="evenodd"></path><path d="M17.02 9.936L25.396 5.1v21.761l-8.376 4.836z" fill="#b8b8bb" fill-rule="evenodd"></path><path d="M8.644 14.772V9.936h8.376v4.836z" fill="none" stroke="#83838a" stroke-width=".269"></path><g fill="none" stroke="#83838a"><path d="M.269 5.1l8.375 4.836h8.376L25.396 5.1M8.644 9.936v21.76M17.02 9.936v21.76" stroke-width=".26865"></path></g><path d="M.269 9.936l4.188-2.418V2.682L.269 5.1z" fill="#ececed" fill-rule="evenodd" stroke="#83838a" stroke-width=".269"></path><path d="M8.644 14.772V9.936L4.457 7.518.269 9.936z" fill="none" stroke="#83838a" stroke-width=".269"></path><path d="M21.208 7.518V2.682L25.396 5.1v4.836" fill="#d2d2d4" fill-rule="evenodd" stroke="#83838a" stroke-width=".269"></path><path d="M25.396 9.936l-4.188-2.418-4.188 2.418v4.836z" fill="#d2d2d4" fill-rule="evenodd" stroke="#83838a" stroke-width=".269"></path><path d="M.269 5.1v21.761l8.375 4.836h8.376l8.376-4.836V5.101L17.02.264H8.644z" fill="none" stroke="#000000" stroke-width=".529"></path><g transform="scale(.29127 .16816) rotate(45 -326.555 -2684.243)"><circle cx="1484" cy="-2012" fill="#4286c5" r="17.6" transform="matrix(1.25 0 0 1.25 0 1488.188)"></circle><path d="M1847.206-1009.63h15.588l-7.794-4.5zM1847.206-1017.135h15.588v-4.5h-15.588zM1847.206-1024.563h15.588v-4.5h-15.588zM1847.206-1031.99h15.588v-4.5h-15.588zM1847.206-1039.418h15.588l-7.794-4.5z" fill="#fff" fill-rule="evenodd"></path></g></svg></g></g><g opacity="1"><g id="05321e67-75dc-49e5-83a5-b190880275be" transform="translate(0 0)"><svg x="336" y="247" height="113.438" width="96" viewBox="0 0 25.4 30.014"><g transform="translate(412.599 -86.957)"><path d="M-412.333 102.348v4.786l8.29 4.785h8.289l8.29-4.785v-4.786l-8.29-4.786h-8.29z" fill="#3c3c3c" fill-rule="evenodd"></path><path d="M-395.754 111.92l8.29-4.786v4.785l-8.29 4.786z" fill="#090909" fill-rule="evenodd"></path><path d="M-404.044 111.92h8.29v4.785h-8.29z" fill="#232323" fill-rule="evenodd"></path><path d="M-412.333 107.134v4.785l8.29 4.786v-4.786z" fill="#232323" fill-rule="evenodd"></path><path d="M-412.333 107.134l8.29 4.785h8.289l8.29-4.785M-404.044 111.92v4.785M-395.754 111.92v4.785" fill="none" stroke="#5e5e5e" stroke-width=".26588"></path><path d="M-412.333 102.348v9.571l8.29 4.786h8.289l8.29-4.786v-9.571l-8.29-4.786h-8.29z" fill="none" stroke="#000000" stroke-width=".53176"></path><path d="M-412.333 97.178v4.786l8.29 4.786h8.289l8.29-4.786v-4.786l-8.29-4.786h-8.29z" fill="#3c3c3c" fill-rule="evenodd"></path><path d="M-395.754 106.75l8.29-4.786v4.786l-8.29 4.786z" fill="#090909" fill-rule="evenodd"></path><path d="M-404.044 106.75h8.29v4.786h-8.29z" fill="#232323" fill-rule="evenodd"></path><path d="M-412.333 101.964v4.786l8.29 4.786v-4.786z" fill="#232323" fill-rule="evenodd"></path><path d="M-412.333 101.964l8.29 4.786h8.289l8.29-4.786M-404.044 106.75v4.786M-395.754 106.75v4.786" fill="none" stroke="#5e5e5e" stroke-width=".266"></path><path d="M-412.333 97.178v9.572l8.29 4.786h8.289l8.29-4.786v-9.572l-8.29-4.786h-8.29z" fill="none" stroke="#000000" stroke-width=".532"></path><path d="M-412.333 92.01v4.785l8.29 4.786h8.289l8.29-4.786v-4.786l-8.29-4.786h-8.29z" fill="#3c3c3c" fill-rule="evenodd"></path><path d="M-395.754 101.58l8.29-4.785v4.786l-8.29 4.786z" fill="#090909" fill-rule="evenodd"></path><path d="M-404.044 101.58h8.29v4.787h-8.29z" fill="#232323" fill-rule="evenodd"></path><path d="M-412.333 96.795v4.786l8.29 4.786v-4.786z" fill="#232323" fill-rule="evenodd"></path><path d="M-412.333 96.795l8.29 4.786h8.289l8.29-4.786M-404.044 101.58v4.787M-395.754 101.58v4.787" fill="none" stroke="#5e5e5e" stroke-width=".266"></path><path d="M-412.333 92.01v9.57l8.29 4.787h8.289l8.29-4.786v-9.572l-8.29-4.786h-8.29z" fill="none" stroke="#000000" stroke-width=".532"></path><circle cx="-136.478" cy="325.284" fill="#f4b934" r="5.801" transform="scale(1.22475 .7071) rotate(45)"></circle><g style="line-height:0%" font-family="sans-serif" font-size="3.191" stroke-width=".266"><path style="line-height:1.25;-inkscape-font-specification:&#x27;Droid Serif&#x27;" d="M-399.242 93.57l.48-.601q.222-.275.177-.448-.04-.17-.467-.416l-.507-.293 1.065-.614.937.541q.825.476.92.934.1.46-.417 1.114l-3.452 4.39-1.622-.937 1.654-2.121-3.729.923-1.622-.936z" fill="#fff" font-family="Droid Serif" font-size="9.971"></path></g></g></svg></g></g><g opacity="1"><g id="205ec2a7-7f1f-4f94-baf2-d6f107bfbfcf" transform="translate(0 0)"><svg x="466" y="284" height="148.981" width="91.956" viewBox="0 0 24.33 39.418"><g transform="translate(240.35 -115.335)"><path d="M-240.082 146.018v4.445l6.973 4.025v-4.445z" fill="#d2d2d4" fill-rule="evenodd"></path><path d="M-233.11 150.043l9.858-.003v4.445l-9.857.003z" fill="#d2d2d4" fill-rule="evenodd"></path><path d="M-223.252 150.04l6.967-4.027v4.445l-6.967 4.028z" fill="#b8b8bb" fill-rule="evenodd"></path><path d="M-223.252 150.04v4.445" fill="none" stroke="#83838a" stroke-width=".267"></path><path d="M302.99-2468.894l-36.732 47.87-59.823 7.876-47.87-36.732-7.875-59.823 36.732-47.87 59.822-7.876 47.87 36.732z" fill="#848586" stroke="#83838a" stroke-width="2.151" transform="matrix(.0995 .07485 -.12957 .05747 -573.282 269.258)"></path><path d="M-240.082 139.12v4.445l6.973 4.025v-4.445z" fill="#d2d2d4" fill-rule="evenodd"></path><path d="M-233.11 143.145l9.858-.003v4.445l-9.857.003z" fill="#d2d2d4" fill-rule="evenodd"></path><path d="M-223.252 143.143l6.967-4.028v4.445l-6.967 4.028z" fill="#b8b8bb" fill-rule="evenodd"></path><path d="M302.99-2468.894l-36.732 47.87-59.823 7.876-47.87-36.732-7.875-59.823 36.732-47.87 59.822-7.876 47.87 36.732z" fill="#848586" stroke="#83838a" stroke-width="2.151" transform="matrix(.0995 .07485 -.12957 .05747 -573.282 262.36)"></path><path d="M-240.082 132.222v4.445l6.973 4.025v-4.445z" fill="#d2d2d4" fill-rule="evenodd"></path><path d="M-233.11 136.247l9.858-.003v4.445l-9.857.003z" fill="#d2d2d4" fill-rule="evenodd"></path><path d="M-223.252 136.245l6.967-4.028v4.445l-6.967 4.028z" fill="#b8b8bb" fill-rule="evenodd"></path><path d="M302.99-2468.894l-36.732 47.87-59.823 7.876-47.87-36.732-7.875-59.823 36.732-47.87 59.822-7.876 47.87 36.732z" fill="#848586" stroke="#83838a" stroke-width="2.151" transform="matrix(.0995 .07485 -.12957 .05747 -573.282 255.462)"></path><path d="M-240.082 125.324v4.445l6.973 4.025v-4.445z" fill="#d2d2d4" fill-rule="evenodd"></path><path d="M-233.11 129.349l9.858-.003v4.445l-9.857.003z" fill="#d2d2d4" fill-rule="evenodd"></path><path d="M-223.252 129.347l6.967-4.028v4.445l-6.967 4.028z" fill="#b8b8bb" fill-rule="evenodd"></path><path d="M-223.252 129.347l-9.857.002-6.973-4.025-.003-5.694 6.967-4.028 9.857-.002 6.973 4.025.003 5.694z" fill="#ececed"></path><path d="M-240.082 125.324l6.964 4.074 9.866-.053 6.967-4.026M-233.118 129.398l.008 4.396M-223.252 129.345v4.445" fill="none" stroke="#83838a" stroke-width=".267"></path><path d="M-240.085 119.63l.003 10.139 6.972 4.025 9.857-.003 6.966-4.027-.002-10.14-6.972-4.025-9.857.003z" fill="none" stroke="#000000" stroke-width=".529"></path><path d="M-223.252 136.242v4.446M-233.11 136.247v4.445" fill="none" stroke="#83838a" stroke-width=".267"></path><path d="M-240.082 132.222v4.445l6.973 4.025 9.857-.003 6.966-4.027.002-4.446-6.968 4.026-9.865.054z" fill="none" stroke="#000000" stroke-width=".529"></path><path d="M-233.11 143.145v4.445M-223.252 143.141v4.446" fill="none" stroke="#83838a" stroke-width=".267"></path><path d="M-240.082 139.12v4.445l6.973 4.025 9.857-.003 6.966-4.026.002-4.446-6.968 4.028-9.857.003z" fill="none" stroke="#000000" stroke-width=".529"></path><path d="M-240.082 146.018v4.445l6.973 4.025 9.857-.003 6.967-4.026v-4.445l-6.967 4.026-9.857.003z" fill="none" stroke="#000000" stroke-width=".529"></path><path d="M-233.11 150.043v4.445" fill="none" stroke="#83838a" stroke-width=".267"></path><circle cx="-9.268" cy="254.217" fill="#4286c5" r="5.832" transform="scale(1.22475 .7071) rotate(45)"></circle><path d="M-227.78 122.24q.75.433 1.536.73.788.298 1.43.362l-.538.31q-.218.127-.73.046-.513-.08-1.181-.34-.669-.26-1.327-.64-.657-.38-1.108-.766-.45-.386-.59-.681-.138-.296.08-.422l.537-.31q.111.37.626.825.516.454 1.265.887zm-2.428 1.403q.749.432 1.536.73.788.297 1.43.361l-.538.31q-.218.127-.73.046-.513-.08-1.182-.34-.668-.26-1.326-.64-.657-.38-1.108-.766-.45-.386-.59-.681-.139-.296.08-.422l.537-.31q.11.37.626.825.516.454 1.265.887zm1.214-.701q.749.432 1.536.73.788.297 1.43.361l-.538.31q-.218.126-.73.046-.513-.08-1.181-.34-.669-.26-1.327-.64-.657-.38-1.108-.766-.45-.386-.59-.681-.138-.296.08-.422l.537-.31q.111.37.626.825.516.454 1.265.887zm3.642-2.103q.657.38 1.108.766.45.386.59.681.139.296-.08.422l-.404.234q-.218.126-.73.045-.513-.08-1.181-.34-.67-.26-1.327-.64-.657-.38-1.108-.766-.45-.386-.59-.681-.139-.296.08-.422l.404-.234q.218-.126.73-.045.513.08 1.182.34.668.26 1.326.64z" fill="#fff"></path></g></svg></g></g><g opacity="1"><g id="e1420986-9350-427c-b2e6-e57bce9a6749" transform="translate(0 0)"><svg x="-275" y="173" height="97.168" width="167.64" viewBox="0 0 44.355 25.709"><path d="M33.976 7.743l-2.77-1.6 2.63-.72 2.634-.72-1.248 1.52z" fill="#f4b934" stroke="#000000" stroke-linecap="round" stroke-width=".265"></path><path d="M16.763 18.904l6.761 6.491 20.284-11.71-6.761-6.415" fill="#ececed" fill-rule="evenodd"></path><path d="M28.9 10.628l-2.77-1.6 2.63-.72 2.635-.72-1.25 1.52zM23.945 13.586l-2.77-1.6 2.631-.72 2.634-.72-1.249 1.52zM18.781 16.527l-2.77-1.6 2.631-.72 2.634-.72-1.249 1.52zM13.748 19.422l-2.77-1.6 2.631-.72 2.634-.719-1.249 1.52zM8.655 22.371l-2.77-1.6 2.631-.72 2.634-.72-1.249 1.52z" fill="#f4b934" stroke="#000000" stroke-linecap="round" stroke-width=".265"></path><path d="M16.763 18.98v2.512l6.761 3.903z" fill="#d2d2d4" fill-rule="evenodd"></path><path d="M.364 12.17l6.87 1.436L27.402 1.74 20.84.228z" fill="#ececed" fill-rule="evenodd"></path><path d="M16.872 18.989l6.76 6.415" fill="none" stroke="#83838a" stroke-width=".265"></path><path d="M16.872 21.5l6.76 3.904 20.284-11.711-6.76-6.453-20.284 11.71z" fill="none" stroke="#000000" stroke-width=".529"></path><path d="M7.234 13.666L.472 12.273l6.762 3.904z" fill="#d2d2d4" fill-rule="evenodd"></path><path d="M7.364 13.575v2.618l20.284-11.61v-2.8z" fill="#b8b8bb" fill-rule="evenodd"></path><path d="M7.288 13.628v2.549" fill="none" stroke="#83838a" stroke-width=".265"></path><path d="M.472 12.273l6.762 3.904 20.283-11.71V1.811L7.196 13.632z" fill="none"></path><path d="M.603 12.298l6.761 1.305 20.087-11.69" fill="none" stroke="#83838a" stroke-width=".265"></path><path d="M.525 12.286l6.84 3.948 20.283-11.71V1.864L20.887.282z" fill="none" stroke="#000000" stroke-width=".529"></path></svg></g></g><g opacity="1"><g id="6eb81606-0cbc-4669-b880-229cdff51350" transform="translate(0 0)"><svg x="-83" y="284" height="97.168" width="167.64" viewBox="0 0 44.355 25.709"><path d="M33.976 7.743l-2.77-1.6 2.63-.72 2.634-.72-1.248 1.52z" fill="#f4b934" stroke="#000000" stroke-linecap="round" stroke-width=".265"></path><path d="M16.763 18.904l6.761 6.491 20.284-11.71-6.761-6.415" fill="#ececed" fill-rule="evenodd"></path><path d="M28.9 10.628l-2.77-1.6 2.63-.72 2.635-.72-1.25 1.52zM23.945 13.586l-2.77-1.6 2.631-.72 2.634-.72-1.249 1.52zM18.781 16.527l-2.77-1.6 2.631-.72 2.634-.72-1.249 1.52zM13.748 19.422l-2.77-1.6 2.631-.72 2.634-.719-1.249 1.52zM8.655 22.371l-2.77-1.6 2.631-.72 2.634-.72-1.249 1.52z" fill="#f4b934" stroke="#000000" stroke-linecap="round" stroke-width=".265"></path><path d="M16.763 18.98v2.512l6.761 3.903z" fill="#d2d2d4" fill-rule="evenodd"></path><path d="M.364 12.17l6.87 1.436L27.402 1.74 20.84.228z" fill="#ececed" fill-rule="evenodd"></path><path d="M16.872 18.989l6.76 6.415" fill="none" stroke="#83838a" stroke-width=".265"></path><path d="M16.872 21.5l6.76 3.904 20.284-11.711-6.76-6.453-20.284 11.71z" fill="none" stroke="#000000" stroke-width=".529"></path><path d="M7.234 13.666L.472 12.273l6.762 3.904z" fill="#d2d2d4" fill-rule="evenodd"></path><path d="M7.364 13.575v2.618l20.284-11.61v-2.8z" fill="#b8b8bb" fill-rule="evenodd"></path><path d="M7.288 13.628v2.549" fill="none" stroke="#83838a" stroke-width=".265"></path><path d="M.472 12.273l6.762 3.904 20.283-11.71V1.811L7.196 13.632z" fill="none"></path><path d="M.603 12.298l6.761 1.305 20.087-11.69" fill="none" stroke="#83838a" stroke-width=".265"></path><path d="M.525 12.286l6.84 3.948 20.283-11.71V1.864L20.887.282z" fill="none" stroke="#000000" stroke-width=".529"></path></svg></g></g><g opacity="1"><g id="e1269818-842a-408c-b08b-f3366f5f549c" transform="translate(0 0)"><svg x="109" y="395" height="97.168" width="167.64" viewBox="0 0 44.355 25.709"><path d="M33.976 7.743l-2.77-1.6 2.63-.72 2.634-.72-1.248 1.52z" fill="#f4b934" stroke="#000000" stroke-linecap="round" stroke-width=".265"></path><path d="M16.763 18.904l6.761 6.491 20.284-11.71-6.761-6.415" fill="#ececed" fill-rule="evenodd"></path><path d="M28.9 10.628l-2.77-1.6 2.63-.72 2.635-.72-1.25 1.52zM23.945 13.586l-2.77-1.6 2.631-.72 2.634-.72-1.249 1.52zM18.781 16.527l-2.77-1.6 2.631-.72 2.634-.72-1.249 1.52zM13.748 19.422l-2.77-1.6 2.631-.72 2.634-.719-1.249 1.52zM8.655 22.371l-2.77-1.6 2.631-.72 2.634-.72-1.249 1.52z" fill="#f4b934" stroke="#000000" stroke-linecap="round" stroke-width=".265"></path><path d="M16.763 18.98v2.512l6.761 3.903z" fill="#d2d2d4" fill-rule="evenodd"></path><path d="M.364 12.17l6.87 1.436L27.402 1.74 20.84.228z" fill="#ececed" fill-rule="evenodd"></path><path d="M16.872 18.989l6.76 6.415" fill="none" stroke="#83838a" stroke-width=".265"></path><path d="M16.872 21.5l6.76 3.904 20.284-11.711-6.76-6.453-20.284 11.71z" fill="none" stroke="#000000" stroke-width=".529"></path><path d="M7.234 13.666L.472 12.273l6.762 3.904z" fill="#d2d2d4" fill-rule="evenodd"></path><path d="M7.364 13.575v2.618l20.284-11.61v-2.8z" fill="#b8b8bb" fill-rule="evenodd"></path><path d="M7.288 13.628v2.549" fill="none" stroke="#83838a" stroke-width=".265"></path><path d="M.472 12.273l6.762 3.904 20.283-11.71V1.811L7.196 13.632z" fill="none"></path><path d="M.603 12.298l6.761 1.305 20.087-11.69" fill="none" stroke="#83838a" stroke-width=".265"></path><path d="M.525 12.286l6.84 3.948 20.283-11.71V1.864L20.887.282z" fill="none" stroke="#000000" stroke-width=".529"></path></svg></g></g><g opacity="1"><g id="3be5dd00-3b66-48c2-b5af-367263bb99de" transform="translate(0 0)"><svg x="-448" y="259" height="111" width="128" fill-rule="evenodd"><path d="M64 74v37l64-37V37L64 74z" fill="#b8b8bb"></path><path d="M0 37v37l64 37V74L0 37z" fill="#d2d2d4"></path><path d="M0 37L64 0l64 37-64 37L0 37z" fill="#ececed"></path><path d="M64 73.407l62.111-35.86.514.889-62.487 36.078h-.276L.743 38.072l.514-.89L64 73.407z" fill="#83838a"></path><path d="M63.486 74h1.027v36h-1.027z" fill="#83838a"></path><path d="M128 37v37l-64 37L0 74V37L64 0l64 37zM2.054 38.185v34.63L64 108.627l61.946-35.812v-34.63L64 2.373 2.054 38.185z" fill="#000000"></path></svg><svg x="-393" y="277" width="60" height="35" style="overflow:visible;cursor:default"><rect transform="matrix(0.707 0.409 -0.707 0.409 0 0)" width="60" height="35" rx="5" ry="5" fill="#4286c5"></rect><text transform="matrix(0.707 0.409 -0.707 0.409 0 0)" font-family="Open Sans" font-size="20pt" text-anchor="middle" x="50%" y="75%" fill="#ffffff"><tspan>T2</tspan></text></svg></g></g><g opacity="1"><g id="f3462c72-fe60-4519-9d14-7d2f48668d2c" transform="translate(0 0)"><svg x="-256" y="370" height="111" width="128" fill-rule="evenodd"><path d="M64 74v37l64-37V37L64 74z" fill="#b8b8bb"></path><path d="M0 37v37l64 37V74L0 37z" fill="#d2d2d4"></path><path d="M0 37L64 0l64 37-64 37L0 37z" fill="#ececed"></path><path d="M64 73.407l62.111-35.86.514.889-62.487 36.078h-.276L.743 38.072l.514-.89L64 73.407z" fill="#83838a"></path><path d="M63.486 74h1.027v36h-1.027z" fill="#83838a"></path><path d="M128 37v37l-64 37L0 74V37L64 0l64 37zM2.054 38.185v34.63L64 108.627l61.946-35.812v-34.63L64 2.373 2.054 38.185z" fill="#000000"></path></svg><svg x="-201" y="388" width="60" height="35" style="overflow:visible;cursor:default"><rect transform="matrix(0.707 0.409 -0.707 0.409 0 0)" width="60" height="35" rx="5" ry="5" fill="#4286c5"></rect><text transform="matrix(0.707 0.409 -0.707 0.409 0 0)" font-family="Open Sans" font-size="20pt" text-anchor="middle" x="50%" y="75%" fill="#ffffff"><tspan>T2</tspan></text></svg></g></g><g opacity="1"><g id="4a739339-1630-4238-b001-c0033cfe8850" transform="translate(0 0)"><svg x="-64" y="481" height="111" width="128" fill-rule="evenodd"><path d="M64 74v37l64-37V37L64 74z" fill="#b8b8bb"></path><path d="M0 37v37l64 37V74L0 37z" fill="#d2d2d4"></path><path d="M0 37L64 0l64 37-64 37L0 37z" fill="#ececed"></path><path d="M64 73.407l62.111-35.86.514.889-62.487 36.078h-.276L.743 38.072l.514-.89L64 73.407z" fill="#83838a"></path><path d="M63.486 74h1.027v36h-1.027z" fill="#83838a"></path><path d="M128 37v37l-64 37L0 74V37L64 0l64 37zM2.054 38.185v34.63L64 108.627l61.946-35.812v-34.63L64 2.373 2.054 38.185z" fill="#000000"></path></svg><svg x="-9" y="499" width="60" height="35" style="overflow:visible;cursor:default"><rect transform="matrix(0.707 0.409 -0.707 0.409 0 0)" width="60" height="35" rx="5" ry="5" fill="#4286c5"></rect><text transform="matrix(0.707 0.409 -0.707 0.409 0 0)" font-family="Open Sans" font-size="20pt" text-anchor="middle" x="50%" y="75%" fill="#ffffff"><tspan>T2</tspan></text></svg></g></g><g opacity="1"><g id="c43da2d0-4ab7-4278-9eb7-0ae3319d287e" transform="translate(0 0)"><svg x="-496" y="527" height="94" width="97" fill-rule="evenodd"><path d="M0 18.6v18.6l32.333 18.6h32.334L97 37.2V18.6L64.667 0H32.333L0 18.6z" fill="#ececed"></path><path d="M64.667 55.8L97 37.2v37.2L64.667 93V55.8z" fill="#b8b8bb"></path><path d="M32.333 55.8h32.334V93H32.333V55.8zM0 37.2v37.2L32.333 93V55.8L0 37.2z" fill="#d2d2d4"></path><g fill="none" stroke="#83838a" stroke-width="1.04"><path d="M.955 37.877L32.333 55.8h32.334l31.378-17.923M32.333 55.8v36.211M64.667 55.8v36.574"></path></g><path d="M97 18.6v55.8L64.667 93H32.333L0 74.4V18.6L32.333 0h32.334L97 18.6zM32.865 1.989L1.989 19.751v53.498l30.876 17.762h31.27l30.876-17.762V19.751L64.135 1.989h-31.27z" fill="#000000"></path><path d="M69.912 15.583c11.818 6.798 11.818 17.836 0 24.635-11.817 6.798-31.007 6.798-42.824 0-11.818-6.799-11.818-17.837 0-24.635 11.817-6.799 31.007-6.799 42.824 0z" fill="#4286c5"></path><path d="M49.584 14.774c1.824 1.049 1.824 2.753 0 3.802-1.824 1.05-4.786 1.05-6.61 0-1.824-1.049-1.824-2.753 0-3.802 1.824-1.05 4.786-1.05 6.61 0zM60.451 21.025c1.825 1.049 1.825 2.753 0 3.803-1.824 1.049-4.786 1.049-6.61 0-1.824-1.05-1.824-2.754 0-3.803s4.786-1.049 6.61 0zM71.319 27.276c1.824 1.05 1.824 2.754 0 3.803-1.825 1.049-4.787 1.049-6.611 0-1.824-1.049-1.824-2.753 0-3.803 1.824-1.049 4.786-1.049 6.611 0zM38.497 33.654c1.824 1.05 1.824 2.754 0 3.803-1.825 1.05-4.787 1.05-6.611 0-1.824-1.049-1.824-2.753 0-3.803 1.824-1.049 4.786-1.049 6.611 0z" fill="#fff"></path><path d="M47.458 15.878c.453.26.393.717-.133 1.02-.526.303-1.32.337-1.773.076-.452-.26-.392-.717.133-1.019.526-.303 1.321-.337 1.773-.077z" fill="#fff"></path><path d="M48.111 15.621c1.012.582 1.012 1.526 0 2.108-1.011.582-2.653.582-3.664 0-1.012-.582-1.012-1.526 0-2.108 1.011-.582 2.653-.582 3.664 0zM58.978 21.872c1.012.582 1.012 1.527 0 2.108-1.011.582-2.653.582-3.664 0-1.012-.581-1.012-1.526 0-2.108 1.011-.581 2.653-.581 3.664 0zM69.846 28.124c1.011.581 1.011 1.526 0 2.108-1.012.582-2.654.582-3.665 0-1.011-.582-1.011-1.527 0-2.108 1.011-.582 2.653-.582 3.665 0z" fill="#4286c5"></path><path d="M37.024 34.502c1.011.582 1.011 1.526 0 2.108-1.012.582-2.654.582-3.665 0-1.011-.582-1.011-1.526 0-2.108 1.011-.582 2.653-.582 3.665 0z" fill="#fff"></path><g fill="#fff"><path d="M52.301 25.172L37.719 33.56l.482.834 14.584-8.388-.484-.834z"></path><path d="M46.993 26.089l6.654-1.146-4.324 5.168c.189-1.691-.757-3.313-2.33-4.022z" stroke="#fff" stroke-width=".36"></path></g><g fill="#fff"><path d="M43.488 19.937l-6.057 13.797.886.387 6.056-13.798-.885-.386z"></path><path d="M39.76 23.812l4.676-4.854-.405 6.716c-.855-1.474-2.582-2.221-4.271-1.862z" stroke="#fff" stroke-width=".36"></path></g><g fill="#fff"><path d="M61.953 30.061l-23.985 3.483.14.955 23.985-3.486-.14-.952z"></path><path d="M56.68 28.957l6.608 1.387-5.936 3.209c.804-1.503.526-3.358-.672-4.596z" stroke="#fff" stroke-width=".36"></path></g><path d="M37.96 33.977l13.12-7.547M37.873 33.927l5.792-13.134M38.037 34.022l22.478-3.281" fill="#fff" stroke="#fff" stroke-width="1.93"></path></svg></g></g></g><g pointer-events="auto"></g><g pointer-events="auto"></g><g pointer-events="auto"><g opacity="1"><g id="0237810c-3652-4f73-bb48-537a97e9ef81" transform="translate(0 0)"><svg x="-384" y="370" overflow="visible"><text stroke="#ffffff" stroke-width="4" font-family="Open Sans" y="36.5" font-size="25pt" fill="#f5b720" font-weight="bold" transform="matrix(0.707 -0.409 0.707 0.409 0 0)" xml:space="preserve"><tspan x="8" dy="0">Microservice 1</tspan></text><text font-family="Open Sans" y="36.5" font-size="25pt" fill="#f5b720" font-weight="bold" transform="matrix(0.707 -0.409 0.707 0.409 0 0)" xml:space="preserve"><tspan x="8" dy="0">Microservice 1</tspan></text></svg></g></g><g opacity="1"><g id="3ef95b5a-8198-4dd6-af8a-4bbd37d3fa25" transform="translate(0 0)"><svg x="-192" y="481" overflow="visible"><text stroke="#ffffff" stroke-width="4" font-family="Open Sans" y="36.5" font-size="25pt" fill="#f5b720" font-weight="bold" transform="matrix(0.707 -0.409 0.707 0.409 0 0)" xml:space="preserve"><tspan x="8" dy="0">Microservice 2</tspan></text><text font-family="Open Sans" y="36.5" font-size="25pt" fill="#f5b720" font-weight="bold" transform="matrix(0.707 -0.409 0.707 0.409 0 0)" xml:space="preserve"><tspan x="8" dy="0">Microservice 2</tspan></text></svg></g></g><g opacity="1"><g id="550b0510-f683-4846-909f-a70079e7a47c" transform="translate(0 0)"><svg x="0" y="592" overflow="visible"><text stroke="#ffffff" stroke-width="4" font-family="Open Sans" y="36.5" font-size="25pt" fill="#f5b720" font-weight="bold" transform="matrix(0.707 -0.409 0.707 0.409 0 0)" xml:space="preserve"><tspan x="8" dy="0">Microservice 3</tspan></text><text font-family="Open Sans" y="36.5" font-size="25pt" fill="#f5b720" font-weight="bold" transform="matrix(0.707 -0.409 0.707 0.409 0 0)" xml:space="preserve"><tspan x="8" dy="0">Microservice 3</tspan></text></svg></g></g></g><g></g></g></svg>